<svg xmlns="http://www.w3.org/2000/svg" xmlns:xlink="http://www.w3.org/1999/xlink" width="265.481" height="136.844" viewBox="0 0 265.481 136.844">
  <defs>
    <clipPath id="clip-path">
      <rect id="Rectangle_17344" data-name="Rectangle 17344" width="179.498" height="73.826" fill="#3b92d5"/>
    </clipPath>
  </defs>
  <g id="Group_88908" data-name="Group 88908" transform="translate(-42 -133.656)">
    <g id="Group_88698" data-name="Group 88698" transform="translate(4)">
      <g id="Group_88191" data-name="Group 88191" transform="translate(1.622 -30)">
        <g id="freepik--Cloud--inject-64" transform="translate(247 163.656)">
          <path id="Path_4151" data-name="Path 4151" d="M388.216,109.137l-1.483.9a7.816,7.816,0,0,0,.207-1.608c0-3.01-2.112-4.223-4.717-2.7a8.321,8.321,0,0,0-2.094,1.8h0c0-4.044-2.839-5.688-6.344-3.666a14.027,14.027,0,0,0-6.344,10.99v.6a3.846,3.846,0,0,0-2.579.593,10.423,10.423,0,0,0-4.717,8.168,5.481,5.481,0,0,0,.117,1.132l-.791.458c-2.148,1.24-3.891,3.657-3.891,5.391s1.743,2.148,3.891.9l28.754-16.579c2.148-1.24,3.891-3.657,3.891-5.391S390.364,107.888,388.216,109.137Z" transform="translate(-378.58 -73.997)" fill="#ebebeb"/>
        </g>
        <g id="freepik--Cloud--inject-64-2" data-name="freepik--Cloud--inject-64" transform="translate(95.371 178.567)">
          <path id="Path_4151-2" data-name="Path 4151" d="M388.216,109.137l-1.483.9a7.816,7.816,0,0,0,.207-1.608c0-3.01-2.112-4.223-4.717-2.7a8.321,8.321,0,0,0-2.094,1.8h0c0-4.044-2.839-5.688-6.344-3.666a14.027,14.027,0,0,0-6.344,10.99v.6a3.846,3.846,0,0,0-2.579.593,10.423,10.423,0,0,0-4.717,8.168,5.481,5.481,0,0,0,.117,1.132l-.791.458c-2.148,1.24-3.891,3.657-3.891,5.391s1.743,2.148,3.891.9l28.754-16.579c2.148-1.24,3.891-3.657,3.891-5.391S390.364,107.888,388.216,109.137Z" transform="translate(-328.58 -99.997)" fill="#ebebeb"/>
        </g>
        <g id="Group_88190" data-name="Group 88190" transform="translate(0 -41.344)">
          <path id="Path_4066" data-name="Path 4066" d="M316.306,296.672s-3.927-6.362-4.313-13.272,1.132-9.785,3.217-10.612,2.246,1.716,3.316,3.217,3.253.647,4.062-4.035,3.756-12.58,9.884-14.116c6.739-1.671,3.127,6.236,1.429,9.318s-3.01,7.287-1.9,8.429,2.848-.97,4.493.988c2,2.363-4.223,10.873-7.8,12.93Z" transform="translate(-35.026 -2.625)" fill="#ffba50"/>
          <g id="Group_88189" data-name="Group 88189" transform="translate(13 -48.222)">
            <path id="Path_4070" data-name="Path 4070" d="M204.287,279.019s-8.617-2.1-9.067-18.241c-.476-17.414,2.112-37.74-8.087-39.384s-15.86,10.783-15.734,25.295c.117,12.706,5.239,40.292,32.852,45.7Z" transform="translate(-127.58 31.975)" fill="#2e786c"/>
            <path id="Path_4071" data-name="Path 4071" d="M204.287,279.019s-8.617-2.1-9.067-18.241c-.476-17.414,2.112-37.74-8.087-39.384s-15.86,10.783-15.734,25.295c.117,12.706,5.239,40.292,32.852,45.7Z" transform="translate(-127.58 31.975)" fill="#3b92d5"/>
            <path id="Path_4072" data-name="Path 4072" d="M205.4,291.391h-.081a22.567,22.567,0,0,1-15.033-10.163c-11.16-16.65-7.647-47.741-6.488-53.168a.458.458,0,0,1,.53-.35.467.467,0,0,1,.35.539c-1.141,5.391-4.637,36.087,6.353,52.476a21.674,21.674,0,0,0,14.449,9.776.449.449,0,0,1,.359.53A.44.44,0,0,1,205.4,291.391Z" transform="translate(-128.69 31.32)" fill="#fff"/>
            <path id="Path_4073" data-name="Path 4073" d="M201.98,335.577c-8.9,1.2-23.363,1.186-31.71-5.391s-6.6-12.238-3.4-14.6,5.993-5.059.476-10.307S152.972,291.6,150.1,278.958s-1.456-20.55,4.187-23.183c5.472-2.552,6.919,1.51,10.271,9.884s10.891,1.2,17.342,3.81,6.191,7.791,6.6,12.239,2.534,5.679,6.191,5.679,7.3,2.1,7.3,6.29Z" transform="translate(-125.272 28.55)" fill="#387eb5"/>
            <path id="Path_4074" data-name="Path 4074" d="M203.005,322.834a.27.27,0,0,1-.117,0c-.386-.108-9.6-2.786-23.012-15.1-14.287-13.119-21.027-32.8-21.1-33a.458.458,0,0,1,.288-.566.449.449,0,0,1,.566.279c.063.2,6.739,19.661,20.856,32.618,13.227,12.158,22.545,14.88,22.644,14.907a.449.449,0,0,1,.306.557.44.44,0,0,1-.431.306Z" transform="translate(-126.297 26.61)" fill="#fff"/>
            <path id="Path_4075" data-name="Path 4075" d="M185.978,312.215a.431.431,0,0,1-.413-.288c-2.884-7.4-3.54-23.246-3.594-23.92a.458.458,0,0,1,.431-.467.476.476,0,0,1,.467.431c0,.162.674,16.363,3.5,23.632a.449.449,0,0,1-.261.584.468.468,0,0,1-.135.027Z" transform="translate(-128.652 25.251)" fill="#fff"/>
            <path id="Path_4076" data-name="Path 4076" d="M186.025,326.383a21.238,21.238,0,0,1-2.48-.126.453.453,0,0,1,.108-.9c.081,0,8.447.953,12.283-2.956a.449.449,0,1,1,.638.629C193.8,325.9,188.954,326.383,186.025,326.383Z" transform="translate(-128.771 21.731)" fill="#fff"/>
          </g>
        </g>
      </g>
    </g>
    <g id="Group_17439" data-name="Group 17439" transform="translate(27 -126.207)">
      <g id="Group_16963" data-name="Group 16963" transform="translate(75 322.881)">
        <g id="Group_16961" data-name="Group 16961" transform="translate(0 0)" clip-path="url(#clip-path)">
          <g id="Group_16956" data-name="Group 16956">
            <g id="Group_16955" data-name="Group 16955" clip-path="url(#clip-path)">
              <path id="Path_11734" data-name="Path 11734" d="M318.237,93.181h9.476v7.044h-9.476ZM339.881,77.79v22.435H327.713V93.181h5.648V77.79ZM331.2,66.8h4.587v6.82H331.2Zm6.444,0h4.587v6.82h-4.587Zm17.74,26.384v7.044H345.036V69.354h6.52V93.181Zm15.048-15.749q4.51,0,6.672,1.481a6.364,6.364,0,0,1,2.729,3.814,27.618,27.618,0,0,1,.568,6.282v11.218H355.384V93.181h5.648a22.723,22.723,0,0,1-.493-4.263,27.461,27.461,0,0,1,.512-4.891q.512-2.782,1.118-4.936a12.164,12.164,0,0,1,3.26-1.144,22.009,22.009,0,0,1,5-.516Zm-3.639,11.487a15.777,15.777,0,0,0,.171,2.288q.17,1.167.36,1.974h6.558V88.828a13.1,13.1,0,0,0-.171-2.423,2.334,2.334,0,0,0-1.042-1.458,4.941,4.941,0,0,0-2.767-.606,10.136,10.136,0,0,0-2.729.359,28.4,28.4,0,0,0-.379,4.218Zm39.573,4.263v7.044H383.585V93.181h12.054q-.114-4.89-1.744-7.089a4.736,4.736,0,0,0-3.867-2.2H385.67l-.493-6.147a30.4,30.4,0,0,1,6.52-1.032,8.495,8.495,0,0,1,5.648,1.974,12.253,12.253,0,0,1,3.582,5.654,27.513,27.513,0,0,1,1.232,8.7v.135ZM419.33,77.341a9.393,9.393,0,0,1,4.416.853,4.592,4.592,0,0,1,2.18,2.4,11.53,11.53,0,0,1,.644,3.971v15.659h-20.2V93.181h13.684V87.213a5.2,5.2,0,0,0-.493-2.6,2.22,2.22,0,0,0-2.047-.808q-.607.045-2.388.045h-5.762l-.151-4.981a26.84,26.84,0,0,1,4.928-1.1,37.563,37.563,0,0,1,5.193-.426ZM415.5,66.393h5.875v7.224H415.5Z" transform="translate(-249.345 -52.02)" fill="#3b92d5"/>
              <path id="Path_11735" data-name="Path 11735" d="M63.674,111.85q0-11.191,0-22.382a3.044,3.044,0,0,0-1.165-2.554,2.745,2.745,0,0,0-1.748-.451l-3.224,0V111.85H0V99.24a3.868,3.868,0,0,1,6.745,0q0,2.768,0,5.536H51.795q0-11.773,0-23.546H63.674a6.235,6.235,0,0,1,3.243,1.087,6.491,6.491,0,0,1,2.592,4.145V111.85Z" transform="translate(0 -63.645)" fill="#3b92d5"/>
            </g>
          </g>
        </g>
      </g>
      <g id="Group_16976" data-name="Group 16976" transform="translate(92.234 375.326)">
        <rect id="Rectangle_17435" data-name="Rectangle 17435" width="4.466" height="6.641" transform="translate(0 0)" fill="#3b92d5"/>
        <rect id="Rectangle_17436" data-name="Rectangle 17436" width="4.466" height="6.641" transform="translate(6.274 0)" fill="#3b92d5"/>
      </g>
      <g id="two-gears-svgrepo-com" transform="translate(82.702 331.073)">
        <path id="Path_11991" data-name="Path 11991" d="M10.736,40.7A6.429,6.429,0,1,0,4.184,32.29c-.05,0-.1-.014-.149-.014a3.065,3.065,0,0,0-1.111.206,3.083,3.083,0,0,0-1.654-1.6,9.577,9.577,0,0,1,.494-1.109L.3,28.307a1.01,1.01,0,0,1,0-1.428l2.587-2.586a1.01,1.01,0,0,1,1.428,0L5.78,25.762a9.592,9.592,0,0,1,1.676-.7V22.991a1.01,1.01,0,0,1,1.009-1.009h3.657a1.01,1.01,0,0,1,1.009,1.009v2.073a9.622,9.622,0,0,1,1.677.7l1.468-1.468a1.01,1.01,0,0,1,1.428,0l2.587,2.586a1.01,1.01,0,0,1,0,1.428l-1.468,1.468a9.605,9.605,0,0,1,.7,1.676H21.6A1.01,1.01,0,0,1,22.6,32.462V36.12A1.01,1.01,0,0,1,21.6,37.13H19.522a9.619,9.619,0,0,1-.7,1.676l1.469,1.469a1.01,1.01,0,0,1,0,1.428L17.706,44.29a1.01,1.01,0,0,1-1.428,0L14.81,42.822a9.58,9.58,0,0,1-1.678.7v2.073a1.01,1.01,0,0,1-1.009,1.01H9.759a3.062,3.062,0,0,0,1.055-2.31A34.931,34.931,0,0,0,10.736,40.7Z" transform="translate(15.757 -21.982)" fill="#ffba50"/>
        <path id="Path_11992" data-name="Path 11992" d="M107.034,132.236a3.1,3.1,0,0,0-.4-.329,4.726,4.726,0,1,1,3.871,6.125,3.065,3.065,0,0,0-.693-.43C110.7,135.291,108.826,134.029,107.034,132.236Z" transform="translate(-85.07 -121.045)" fill="#ffba50"/>
        <path id="Path_11993" data-name="Path 11993" d="M286,260.1a3.933,3.933,0,1,1-3.933,3.933A3.937,3.937,0,0,1,286,260.1Z" transform="translate(-271.6 -243.188)" fill="#ffba50"/>
        <path id="Path_11995" data-name="Path 11995" d="M284.442,260.095a2.372,2.372,0,1,1-2.373,2.372A2.375,2.375,0,0,1,284.442,260.095Z" transform="translate(-278.462 -255.391)" fill="#ffba50"/>
        <path id="Path_11994" data-name="Path 11994" d="M197.876,184.338a.813.813,0,0,1,.813-.813h1.669a7.726,7.726,0,0,1,.562-1.35l-1.183-1.183a.813.813,0,0,1,0-1.15l2.082-2.082a.814.814,0,0,1,1.15,0l1.184,1.184a7.689,7.689,0,0,1,1.349-.561v-1.669a.813.813,0,0,1,.813-.813h2.945a.813.813,0,0,1,.813.813v1.669a7.716,7.716,0,0,1,1.35.561l1.182-1.182a.813.813,0,0,1,1.15,0l2.082,2.082a.813.813,0,0,1,0,1.15l-1.182,1.182a7.718,7.718,0,0,1,.562,1.349h1.669a.813.813,0,0,1,.813.813v2.946a.813.813,0,0,1-.813.813h-1.669a7.724,7.724,0,0,1-.562,1.35l1.183,1.183a.814.814,0,0,1,0,1.15l-2.082,2.082a.813.813,0,0,1-1.15,0l-1.181-1.181a7.723,7.723,0,0,1-1.351.562v1.67a.813.813,0,0,1-.813.813h-2.945a.813.813,0,0,1-.813-.813v-1.67a7.7,7.7,0,0,1-1.351-.562l-1.183,1.183a.814.814,0,0,1-1.149,0l-2.082-2.082a.813.813,0,0,1,0-1.15l1.183-1.183a7.7,7.7,0,0,1-.562-1.351h-1.669a.813.813,0,0,1-.813-.813Zm9.912,6.535a5.062,5.062,0,1,0-5.062-5.062A5.068,5.068,0,0,0,207.788,190.873Z" transform="translate(-193.386 -164.972)" fill="#ffba50"/>
        <path id="Path_11996" data-name="Path 11996" d="M197.876,180.991a.49.49,0,0,1,.49-.49h1.007a4.658,4.658,0,0,1,.339-.814l-.713-.713a.491.491,0,0,1,0-.694l1.256-1.256a.491.491,0,0,1,.693,0l.714.714a4.637,4.637,0,0,1,.814-.339v-1.007a.49.49,0,0,1,.49-.49h1.776a.49.49,0,0,1,.49.49V177.4a4.656,4.656,0,0,1,.814.339l.713-.713a.491.491,0,0,1,.693,0l1.256,1.256a.491.491,0,0,1,0,.694l-.713.713a4.658,4.658,0,0,1,.339.814h1.007a.49.49,0,0,1,.49.49v1.777a.49.49,0,0,1-.49.49h-1.007a4.661,4.661,0,0,1-.339.814l.713.713a.491.491,0,0,1,0,.693l-1.256,1.256a.491.491,0,0,1-.694,0l-.713-.713a4.661,4.661,0,0,1-.815.339v1.007a.49.49,0,0,1-.49.49h-1.776a.49.49,0,0,1-.49-.49v-1.007a4.644,4.644,0,0,1-.815-.339l-.714.713a.491.491,0,0,1-.693,0L199,185.48a.491.491,0,0,1,0-.694l.713-.713a4.642,4.642,0,0,1-.339-.815h-1.007a.491.491,0,0,1-.491-.491Zm5.979,3.943a3.053,3.053,0,1,0-3.054-3.054A3.057,3.057,0,0,0,203.856,184.933Z" transform="translate(-197.876 -174.804)" fill="#ffba50"/>
      </g>
    </g>
  </g>
</svg>
